<?xml version="1.0" encoding="utf-8"?>
<!-- Generator: Adobe Illustrator 16.0.0, SVG Export Plug-In . SVG Version: 6.00 Build 0)  -->
<!DOCTYPE svg PUBLIC "-//W3C//DTD SVG 1.0//EN" "http://www.w3.org/TR/2001/REC-SVG-20010904/DTD/svg10.dtd">
<svg version="1.0"
	 id="svg3843" xmlns:dc="http://purl.org/dc/elements/1.1/" xmlns:cc="http://creativecommons.org/ns#" xmlns:rdf="http://www.w3.org/1999/02/22-rdf-syntax-ns#" xmlns:svg="http://www.w3.org/2000/svg" xmlns:sodipodi="http://sodipodi.sourceforge.net/DTD/sodipodi-0.dtd" xmlns:inkscape="http://www.inkscape.org/namespaces/inkscape" sodipodi:docname="New document 3" inkscape:version="0.48.4 r9939"
	 xmlns="http://www.w3.org/2000/svg" xmlns:xlink="http://www.w3.org/1999/xlink" x="0px" y="0px" width="66px" height="22px"
	 viewBox="0 0 66 22" enable-background="new 0 0 66 22" xml:space="preserve">
<sodipodi:namedview  showgrid="false" inkscape:cy="-91.352865" inkscape:cx="86.013373" inkscape:zoom="2.8" borderopacity="1.0" bordercolor="#666666" pagecolor="#ffffff" id="base" inkscape:window-maximized="1" inkscape:window-y="27" inkscape:current-layer="layer1" inkscape:document-units="px" inkscape:pageopacity="0.0" inkscape:window-x="0" inkscape:window-height="1020" inkscape:window-width="1920" inkscape:pageshadow="2">
	</sodipodi:namedview>
<g id="layer1" transform="translate(0,-1030.3622)" inkscape:label="Layer 1" inkscape:groupmode="layer">
	<g id="g3868" transform="translate(4.42857,-16.714216)">
		<rect id="rect3751" x="-4.429" y="1047.076" fill="#CE5C00" fill-opacity="0" width="22" height="22"/>
		<path id="path3783" inkscape:connector-curvature="0" fill="#A0E014" d="M6.571,1049.076c-4.971,0-9,4.029-9,9s4.029,9,9,9
			s9-4.029,9-9S11.542,1049.076,6.571,1049.076z M2.522,1056.811h8.1v2.531h-8.1V1056.811z"/>
		<rect id="rect3778" x="17.571" y="1047.076" fill="#CE5C00" fill-opacity="0" width="22" height="22"/>
		<path id="path3785" inkscape:connector-curvature="0" fill="#97E213" d="M28.571,1049.076c-4.971,0-9,4.029-9,9s4.029,9,9,9
			s9-4.029,9-9S33.542,1049.076,28.571,1049.076z M24.915,1054.42h1.575h5.737v2.588v3.121v1.576H26.49h-1.575v-1.576v-3.121
			V1054.42z"/>
		<rect id="rect3780" x="39.571" y="1047.076" fill="#CE5C00" fill-opacity="0" width="22" height="22"/>
		<path id="path3787" inkscape:connector-curvature="0" fill="#D31616" d="M50.571,1049.076c-4.971,0-9,4.029-9,9s4.029,9,9,9
			s9-4.029,9-9S55.542,1049.076,50.571,1049.076z M47.871,1054.027l2.7,2.7l2.7-2.7l1.35,1.35l-2.7,2.7l2.7,2.7l-1.35,1.35l-2.7-2.7
			l-2.7,2.7l-1.35-1.35l2.7-2.7l-2.7-2.7L47.871,1054.027z"/>
	</g>
</g>
</svg>
